<?xml version="1.0" encoding="UTF-8" standalone="no"?>
<!-- Generator: Adobe Illustrator 17.0.1, SVG Export Plug-In . SVG Version: 6.00 Build 0)  -->

<svg
   xmlns:dc="http://purl.org/dc/elements/1.1/"
   xmlns:cc="http://creativecommons.org/ns#"
   xmlns:rdf="http://www.w3.org/1999/02/22-rdf-syntax-ns#"
   xmlns:svg="http://www.w3.org/2000/svg"
   xmlns="http://www.w3.org/2000/svg"
   xmlns:xlink="http://www.w3.org/1999/xlink"
   xmlns:sodipodi="http://sodipodi.sourceforge.net/DTD/sodipodi-0.dtd"
   xmlns:inkscape="http://www.inkscape.org/namespaces/inkscape"
   version="1.1"
   x="0px"
   y="0px"
   width="86px"
   height="86px"
   viewBox="0 0 86 86"
   enable-background="new 0 0 86 86"
   xml:space="preserve"
   id="svg3093"
   inkscape:version="0.48.3.1 r9886"
   sodipodi:docname="memento.svg"><metadata
   id="metadata3118"><rdf:RDF><cc:Work
       rdf:about=""><dc:format>image/svg+xml</dc:format><dc:type
         rdf:resource="http://purl.org/dc/dcmitype/StillImage" /></cc:Work></rdf:RDF></metadata><defs
   id="defs3116"><linearGradient
   id="linearGradient3944"><stop
     id="stop3946"
     offset="0"
     style="stop-color:#0038b3;stop-opacity:1;" /><stop
     id="stop3948"
     offset="1"
     style="stop-color:#0095ea;stop-opacity:1;" /></linearGradient><linearGradient
   id="linearGradient3921"><stop
     style="stop-color:#0080ff;stop-opacity:1;"
     offset="0"
     id="stop3923" /><stop
     style="stop-color:#4cbeff;stop-opacity:1;"
     offset="1"
     id="stop3925" /></linearGradient>
	<linearGradient
   y2="0.7169"
   x2="85.2831"
   y1="85.2831"
   x1="0.7169"
   gradientUnits="userSpaceOnUse"
   id="SVGID_1_">
		<stop
   id="stop3098"
   style="stop-color:#d1cfc5;stop-opacity:1;"
   offset="0" />
		<stop
   id="stop3100"
   style="stop-color:#fff8d9;stop-opacity:1;"
   offset="1" />
	</linearGradient>
	
	
	
	
	
<linearGradient
   inkscape:collect="always"
   xlink:href="#SVGID_1_"
   id="linearGradient3129"
   gradientUnits="userSpaceOnUse"
   x1="0.7169"
   y1="85.2831"
   x2="85.2831"
   y2="0.7169" />
		
	
		
	<linearGradient
   inkscape:collect="always"
   xlink:href="#linearGradient3921"
   id="linearGradient3927"
   x1="40.076817"
   y1="36.98959"
   x2="36.681351"
   y2="69.308823"
   gradientUnits="userSpaceOnUse" /><linearGradient
   inkscape:collect="always"
   xlink:href="#linearGradient3921"
   id="linearGradient3933"
   gradientUnits="userSpaceOnUse"
   x1="40.076817"
   y1="36.98959"
   x2="36.681351"
   y2="69.308823" /><linearGradient
   inkscape:collect="always"
   xlink:href="#linearGradient3921"
   id="linearGradient3940"
   gradientUnits="userSpaceOnUse"
   x1="40.076817"
   y1="36.98959"
   x2="36.681351"
   y2="69.308823"
   gradientTransform="translate(0,0.59619408)" /><linearGradient
   inkscape:collect="always"
   xlink:href="#linearGradient3944"
   id="linearGradient3942"
   gradientUnits="userSpaceOnUse"
   x1="40.076817"
   y1="36.98959"
   x2="36.681351"
   y2="69.308823"
   gradientTransform="translate(0,2)" /></defs><sodipodi:namedview
   pagecolor="#ffffff"
   bordercolor="#666666"
   borderopacity="1"
   objecttolerance="10"
   gridtolerance="10"
   guidetolerance="10"
   inkscape:pageopacity="0"
   inkscape:pageshadow="2"
   inkscape:window-width="1364"
   inkscape:window-height="746"
   id="namedview3114"
   showgrid="true"
   inkscape:zoom="2.8284271"
   inkscape:cx="79.138702"
   inkscape:cy="75.549204"
   inkscape:window-x="0"
   inkscape:window-y="0"
   inkscape:window-maximized="0"
   inkscape:current-layer="svg3093" />
<g
   id="Layer_2"
   display="none">
</g>
<path
   inkscape:connector-curvature="0"
   style="fill:url(#linearGradient3129)"
   id="path3102"
   d="M 84.277,0.3 H 43 C 19.417,0.3 0.3,19.418 0.3,43 v 41.277 c 0,0.786 0.637,1.423 1.423,1.423 H 43 C 66.583,85.7 85.7,66.582 85.7,43 V 1.723 C 85.7,0.937 85.063,0.3 84.277,0.3 z" /><path
   style="fill:#231901;fill-opacity:0.12195122"
   d="M 43 10.96875 C 25.314 10.96875 10.96875 23.95275 10.96875 39.96875 L 10.96875 59.53125 L 10.96875 73.78125 C 10.96875 75.392249 10.97105 75.375 12.75 75.375 L 43 75.375 C 60.686 75.375 75.03125 62.390999 75.03125 46.375 L 75.03125 26.84375 L 75.03125 12.59375 C 75.03125 10.98275 75.02895 10.96875 73.25 10.96875 L 43 10.96875 z M 43 22 L 62.875 22 C 64.04441 22 64.0625 22.003503 64.0625 23.0625 L 64.0625 32.4375 L 64.0625 45.28125 C 64.0625 55.809423 54.625953 64.34375 43 64.34375 L 23.125 64.34375 C 21.955589 64.34375 21.9375 64.340246 21.9375 63.28125 L 21.9375 53.9375 L 21.9375 41.0625 C 21.9375 30.534328 31.374048 22 43 22 z "
   id="path3106" />
<path
   id="path3938"
   d="M 85.6875,6.3774441 38.5,53.939944 21.53125,29.533694 l -8.1875,5.6875 20.40625,29.34375 3.40625,4.9375 4.25,-4.25 44.28125,-44.65625 0,-14.2187499 z"
   style="font-size:medium;font-style:normal;font-variant:normal;font-weight:normal;font-stretch:normal;text-indent:0;text-align:start;text-decoration:none;line-height:normal;letter-spacing:normal;word-spacing:normal;text-transform:none;direction:ltr;block-progression:tb;writing-mode:lr-tb;text-anchor:start;baseline-shift:baseline;color:#000000;fill:url(#linearGradient3940);fill-opacity:1;stroke:none;stroke-width:10;marker:none;visibility:visible;display:inline;overflow:visible;enable-background:accumulate;font-family:Sans;-inkscape-font-specification:Sans;opacity:1"
   inkscape:connector-curvature="0" /></svg>